/* XPM */
static char * freebloks_xpm[] = {
"32 32 272 2",
"  	c None",
". 	c #C8C482",
"+ 	c #C9C483",
"@ 	c #676738",
"# 	c #696936",
"$ 	c #696736",
"% 	c #C0BD7D",
"& 	c #FE0000",
"* 	c #696B39",
"= 	c #626233",
"- 	c #A0A160",
"; 	c #656634",
"> 	c #6A6B39",
", 	c #A4A561",
"' 	c #00E500",
") 	c #00FE00",
"! 	c #00C200",
"~ 	c #00C800",
"{ 	c #B0AF74",
"] 	c #C90000",
"^ 	c #C70000",
"/ 	c #A4A460",
"( 	c #BEBB78",
"_ 	c #BAB176",
": 	c #C9C280",
"< 	c #6C6738",
"[ 	c #A4A062",
"} 	c #C5BD7F",
"| 	c #C8BF82",
"1 	c #00A900",
"2 	c #00CC00",
"3 	c #00C900",
"4 	c #00BB00",
"5 	c #00CA00",
"6 	c #00E000",
"7 	c #00BE00",
"8 	c #1F1300",
"9 	c #FE2A18",
"0 	c #FE0500",
"a 	c #696A38",
"b 	c #CAC584",
"c 	c #989A58",
"d 	c #CAC582",
"e 	c #BFBD79",
"f 	c #26FE14",
"g 	c #2BFE19",
"h 	c #2AFE18",
"i 	c #00C400",
"j 	c #9FA05F",
"k 	c #A6A267",
"l 	c #767642",
"m 	c #9F9F5D",
"n 	c #910400",
"o 	c #BA0000",
"p 	c #B50000",
"q 	c #7AA564",
"r 	c #A1CC83",
"s 	c #666536",
"t 	c #BFBD76",
"u 	c #ABAC66",
"v 	c #00CE00",
"w 	c #00A100",
"x 	c #00C700",
"y 	c #00BA00",
"z 	c #8E8F51",
"A 	c #A7A965",
"B 	c #BEBF76",
"C 	c #959556",
"D 	c #B3B46B",
"E 	c #AFB06A",
"F 	c #F60000",
"G 	c #D10000",
"H 	c #6C6635",
"I 	c #9C9C5B",
"J 	c #656B36",
"K 	c #C7C280",
"L 	c #6E6E3B",
"M 	c #D4CF8C",
"N 	c #536A38",
"O 	c #576C39",
"P 	c #576C38",
"Q 	c #E70000",
"R 	c #B80000",
"S 	c #646231",
"T 	c #5C5D2E",
"U 	c #6C5739",
"V 	c #6D5739",
"W 	c #0000F4",
"X 	c #0000FE",
"Y 	c #0000C4",
"Z 	c #5C5C36",
"` 	c #5B5B2B",
" .	c #848250",
"..	c #E50000",
"+.	c #FE2716",
"@.	c #C50000",
"#.	c #6A6938",
"$.	c #C3BF7F",
"%.	c #1627FE",
"&.	c #0000BA",
"*.	c #182AFE",
"=.	c #66663E",
"-.	c #A2A261",
";.	c #43431D",
">.	c #5B5B2C",
",.	c #5B5B2E",
"'.	c #3FA457",
").	c #3EA558",
"!.	c #42974E",
"~.	c #D30000",
"{.	c #950000",
"].	c #0000F1",
"^.	c #0000CC",
"/.	c #716F27",
"(.	c #6F7025",
"_.	c #5C5C31",
":.	c #84854C",
"<.	c #519F51",
"[.	c #A9FEA4",
"}.	c #87DE7A",
"|.	c #FE2513",
"1.	c #C40000",
"2.	c #0000EF",
"3.	c #0000BF",
"4.	c #D4CE89",
"5.	c #7E7E47",
"6.	c #AAA766",
"7.	c #85834C",
"8.	c #BFBB7B",
"9.	c #409D50",
"0.	c #429249",
"a.	c #449249",
"b.	c #5F572A",
"c.	c #5F5327",
"d.	c #574B36",
"e.	c #FAFE00",
"f.	c #F9FE00",
"g.	c #566936",
"h.	c #586A38",
"i.	c #5D5D2E",
"j.	c #0000EC",
"k.	c #0000CE",
"l.	c #585A2A",
"m.	c #474721",
"n.	c #C2BF7E",
"o.	c #559C51",
"p.	c #8DF18A",
"q.	c #787643",
"r.	c #989A6C",
"s.	c #FEFE16",
"t.	c #FEFE14",
"u.	c #0417FE",
"v.	c #96955C",
"w.	c #6B6B3B",
"x.	c #9FA15D",
"y.	c #242408",
"z.	c #5D5F2F",
"A.	c #666031",
"B.	c #605529",
"C.	c #D3D600",
"D.	c #D9DD00",
"E.	c #D4D800",
"F.	c #E4E700",
"G.	c #E1E500",
"H.	c #5F602E",
"I.	c #0000EA",
"J.	c #696A33",
"K.	c #6E6F29",
"L.	c #6F6C26",
"M.	c #646533",
"N.	c #656636",
"O.	c #9C9F5D",
"P.	c #FEFE1E",
"Q.	c #FEFE18",
"R.	c #D1D300",
"S.	c #FEFE28",
"T.	c #1426FE",
"U.	c #53564E",
"V.	c #5F5F31",
"W.	c #A2A25F",
"X.	c #C9C580",
"Y.	c #626434",
"Z.	c #5A5A50",
"`.	c #9B9B78",
" +	c #9C9C76",
".+	c #AEAF66",
"++	c #AEAF6B",
"@+	c #B3B500",
"#+	c #C4C700",
"$+	c #9F9756",
"%+	c #B1A961",
"&+	c #B1A964",
"*+	c #0000A5",
"=+	c #66693E",
"-+	c #C4C34C",
";+	c #969758",
">+	c #AFAF69",
",+	c #AEB067",
"'+	c #9C9D5C",
")+	c #DEE200",
"!+	c #CED100",
"~+	c #5D5F31",
"{+	c #A4A557",
"]+	c #616143",
"^+	c #CDC887",
"/+	c #519C51",
"(+	c #AAFEA5",
"_+	c #7DE67D",
":+	c #192AFE",
"<+	c #70703B",
"[+	c #55562B",
"}+	c #9C9F00",
"|+	c #C9C700",
"1+	c #B9BB00",
"2+	c #98965C",
"3+	c #6E6E34",
"4+	c #53A153",
"5+	c #A5FEA0",
"6+	c #7FE67D",
"7+	c #0003BA",
"8+	c #0003BB",
"9+	c #0000B5",
"0+	c #6A6B34",
"a+	c #CEC985",
"b+	c #C7C480",
"c+	c #57572C",
"d+	c #FEFE00",
"e+	c #C7C900",
"f+	c #71713F",
"g+	c #509D52",
"h+	c #58A458",
"i+	c #539B52",
"j+	c #B8B64E",
"k+	c #0003FE",
"l+	c #0001FE",
"m+	c #646440",
"n+	c #919155",
"o+	c #0000F6",
"p+	c #0005FE",
"q+	c #73743D",
"r+	c #C4BF7E",
"s+	c #8F9200",
"t+	c #C3C000",
"u+	c #C3C700",
"v+	c #BBBE00",
"w+	c #C0BD00",
"x+	c #8C8D13",
"y+	c #98F896",
"z+	c #C5C27F",
"A+	c #0002B4",
"B+	c #AEAF6C",
"C+	c #0001B4",
"D+	c #0000B6",
"E+	c #CCC784",
"F+	c #A2A066",
"G+	c #C3C500",
"H+	c #499F50",
"I+	c #4B934B",
"J+	c #73743F",
"K+	c #0000FD",
"L+	c #0000F9",
"M+	c #0000E9",
"N+	c #0000BB",
"O+	c #1C1D00",
"P+	c #FEFE1C",
"Q+	c #FEFE19",
"R+	c #A7FEA2",
"S+	c #9B9D5A",
"T+	c #CFCA87",
"U+	c #9D9F5D",
"V+	c #0518FE",
"W+	c #646431",
"                                                                ",
"                                                                ",
"                                                                ",
"                                                                ",
"        . . . . . . . . . . . . . . . . . . . . . . . . . .     ",
"        + @ # @ $ @ $ $ @ # @ # @ $ @ @ $ @ # @ $ @ $ $ $ .     ",
"      . % & & * = - = ; = = > = , = = ' ) ! ) ) ) ) ' ) ~ .     ",
"      . { ] ^ > . / . ( _ : < : [ } | 1 ~ 2 3 4 5 ~ 6 ~ 7 .     ",
"      . 8 9 0 a b c d e f g ' h i f g a b j b . k d l d m .     ",
"      . n o p q r s t u v v w v x y y z t A B t C t D t E b .   ",
"      . F 9 G 9 9 H . I b . > . j f h J . - + K L . m . b M .   ",
"      . N O N O P Q & R & & S T T U V W X Y X X Z T ` T T  ..   ",
"      . a . / . . ..+.@.+.9 #.. j $.. W %.&.*.%.=.. -.+ . ;..   ",
"      . >.,.L ,.,.'.).!.& & ~.& {.,.,.].X ^./.(._.,.,.,.,.:..   ",
"    . + = . :.. K <.[.}.+.|...+.1.$.. 2.%.3.4.. 5.. 6.7.. A .   ",
"    . 8.T ,.9.0.a.b.c.d.e.f.g.h.P T i.j.X k.,.,.- ,.T T ,.l..   ",
"    . m.n.. o.[.p.q.. r.s.t.a . j $.. 2.%.u.v.. m . K w.. x..   ",
"    . y.z.z.A.B.B.C.D.E.F.G.` z.H.I.I.J.K.L.T z.M.z.z.; z.T . . ",
"    . N.. . a . O.P.Q.R.Q.S.a . j T.*.U.. + V.. W.X.. Y.. j . . ",
"    . Z.`. +I .+++@+@+C.#+#+$+%+&+*+*+=+-+-+;+.+>+,+,+'+.+.+K . ",
"    . )+Q.!+~+X.{+Q.Q.]+X.^+/+(+_+T.*.2.*.:+<+X.-.K + , X.. [+. ",
"    . }+|+1+2+K r.|+|+3+K b 4+5+6+7+8+9+8+7+0+K m a+K j K b+c+. ",
"  . . d+d+#+d+d+e+f+f+g+h+i+> f+-.f+f+j+k+l+m+f+n+o+p+3.q+f+- . ",
"  . r+s+t+u+v+w+x+. X.g+[.y+> . - z+. j+A+A+m+. B+W C+D+E+. - . ",
"  . F+d+d+G+M.M.H+I+I+a M.M.M.M.J+M.M., M.M.j.K+L+j.K+M+2.K+N+. ",
"  . O+P+Q+#+. . o.[.R+a . S+a . - T+. U+. . j.:+*.o+*.V+2.*.&.. ",
". . . . . . . . . . . . . . . . . . . . . . . . . . . . . . . . ",
"= W+= = M.= M.= M.= = W+= M.= M.= W+= = M.= M.= M.= = W+= M.= M.",
"  M.M.M.M.M.M.M.M.M.M.M.M.M.M.M.M.M.M.M.M.M.M.M.M.M.M.M.M.M.M.M.",
"                                                                ",
"                                                                ",
"                                                                "};
